<svg width="700" height="260" xmlns="http://www.w3.org/2000/svg">
  <rect x="40" y="40" width="120" height="40" fill="#e0e7ff" stroke="#6c63ff" stroke-width="2"/>
  <text x="100" y="65" font-size="13" text-anchor="middle" fill="#333">Code Commit</text>
  <rect x="200" y="40" width="120" height="40" fill="#e0e7ff" stroke="#6c63ff" stroke-width="2"/>
  <text x="260" y="65" font-size="13" text-anchor="middle" fill="#333">CI/CD Pipeline</text>
  <rect x="360" y="40" width="120" height="40" fill="#e0e7ff" stroke="#6c63ff" stroke-width="2"/>
  <text x="420" y="65" font-size="13" text-anchor="middle" fill="#333">Docker Build</text>
  <rect x="520" y="40" width="120" height="40" fill="#e0e7ff" stroke="#6c63ff" stroke-width="2"/>
  <text x="580" y="65" font-size="13" text-anchor="middle" fill="#333">Deploy</text>
  <rect x="260" y="160" width="120" height="40" fill="#fff" stroke="#6c63ff" stroke-width="2"/>
  <text x="320" y="185" font-size="13" text-anchor="middle" fill="#333">API Service</text>
  <rect x="420" y="160" width="120" height="40" fill="#fff" stroke="#6c63ff" stroke-width="2"/>
  <text x="480" y="185" font-size="13" text-anchor="middle" fill="#333">MLflow Tracking</text>
  <rect x="580" y="160" width="120" height="40" fill="#fff" stroke="#6c63ff" stroke-width="2"/>
  <text x="640" y="185" font-size="13" text-anchor="middle" fill="#333">Model Store</text>
  <rect x="100" y="160" width="120" height="40" fill="#fff" stroke="#6c63ff" stroke-width="2"/>
  <text x="160" y="185" font-size="13" text-anchor="middle" fill="#333">User/API Client</text>
  <line x1="160" y1="80" x2="260" y2="80" stroke="#6c63ff" stroke-width="2" marker-end="url(#arrow)"/>
  <line x1="320" y1="80" x2="420" y2="80" stroke="#6c63ff" stroke-width="2" marker-end="url(#arrow)"/>
  <line x1="480" y1="80" x2="580" y2="80" stroke="#6c63ff" stroke-width="2" marker-end="url(#arrow)"/>
  <line x1="320" y1="80" x2="320" y2="160" stroke="#6c63ff" stroke-width="2" marker-end="url(#arrow)"/>
  <line x1="480" y1="80" x2="480" y2="160" stroke="#6c63ff" stroke-width="2" marker-end="url(#arrow)"/>
  <line x1="640" y1="80" x2="640" y2="160" stroke="#6c63ff" stroke-width="2" marker-end="url(#arrow)"/>
  <line x1="160" y1="200" x2="320" y2="200" stroke="#6c63ff" stroke-width="2" marker-end="url(#arrow)"/>
  <defs>
    <marker id="arrow" markerWidth="10" markerHeight="10" refX="5" refY="5" orient="auto" markerUnits="strokeWidth">
      <path d="M0,0 L10,5 L0,10 L2,5 z" fill="#6c63ff" />
    </marker>
  </defs>
</svg> 