<svg width="700" height="320" xmlns="http://www.w3.org/2000/svg">
  <rect x="60" y="20" width="600" height="40" fill="#e0e7ff" stroke="#6c63ff" stroke-width="2"/>
  <text x="350" y="45" font-size="15" text-anchor="middle" fill="#333">Unified Frontend</text>
  <rect x="60" y="120" width="120" height="40" fill="#e0e7ff" stroke="#6c63ff" stroke-width="2"/>
  <text x="120" y="145" font-size="13" text-anchor="middle" fill="#333">Chatbot Tab</text>
  <rect x="220" y="120" width="120" height="40" fill="#e0e7ff" stroke="#6c63ff" stroke-width="2"/>
  <text x="280" y="145" font-size="13" text-anchor="middle" fill="#333">Dashboard Tab</text>
  <rect x="380" y="120" width="120" height="40" fill="#e0e7ff" stroke="#6c63ff" stroke-width="2"/>
  <text x="440" y="145" font-size="13" text-anchor="middle" fill="#333">Classifier Tab</text>
  <rect x="540" y="120" width="120" height="40" fill="#e0e7ff" stroke="#6c63ff" stroke-width="2"/>
  <text x="600" y="145" font-size="13" text-anchor="middle" fill="#333">MLOps Tab</text>
  <rect x="60" y="220" width="120" height="40" fill="#fff" stroke="#6c63ff" stroke-width="2"/>
  <text x="120" y="245" font-size="13" text-anchor="middle" fill="#333">Chatbot API</text>
  <rect x="220" y="220" width="120" height="40" fill="#fff" stroke="#6c63ff" stroke-width="2"/>
  <text x="280" y="245" font-size="13" text-anchor="middle" fill="#333">Dashboard API</text>
  <rect x="380" y="220" width="120" height="40" fill="#fff" stroke="#6c63ff" stroke-width="2"/>
  <text x="440" y="245" font-size="13" text-anchor="middle" fill="#333">Classifier API</text>
  <rect x="540" y="220" width="120" height="40" fill="#fff" stroke="#6c63ff" stroke-width="2"/>
  <text x="600" y="245" font-size="13" text-anchor="middle" fill="#333">MLOps API</text>
  <line x1="120" y1="60" x2="120" y2="120" stroke="#6c63ff" stroke-width="2"/>
  <line x1="280" y1="60" x2="280" y2="120" stroke="#6c63ff" stroke-width="2"/>
  <line x1="440" y1="60" x2="440" y2="120" stroke="#6c63ff" stroke-width="2"/>
  <line x1="600" y1="60" x2="600" y2="120" stroke="#6c63ff" stroke-width="2"/>
  <line x1="120" y1="160" x2="120" y2="220" stroke="#6c63ff" stroke-width="2"/>
  <line x1="280" y1="160" x2="280" y2="220" stroke="#6c63ff" stroke-width="2"/>
  <line x1="440" y1="160" x2="440" y2="220" stroke="#6c63ff" stroke-width="2"/>
  <line x1="600" y1="160" x2="600" y2="220" stroke="#6c63ff" stroke-width="2"/>
</svg> 