<svg width="700" height="340" xmlns="http://www.w3.org/2000/svg">
  <rect x="300" y="20" width="180" height="40" fill="#e0e7ff" stroke="#6c63ff" stroke-width="2"/>
  <text x="390" y="45" font-size="15" text-anchor="middle" fill="#333">Unified Frontend (React)</text>
  <rect x="40" y="120" width="160" height="40" fill="#e0e7ff" stroke="#6c63ff" stroke-width="2"/>
  <text x="120" y="145" font-size="13" text-anchor="middle" fill="#333">Chatbot API</text>
  <rect x="260" y="120" width="180" height="40" fill="#e0e7ff" stroke="#6c63ff" stroke-width="2"/>
  <text x="350" y="145" font-size="13" text-anchor="middle" fill="#333">Dashboard API</text>
  <rect x="500" y="120" width="160" height="40" fill="#e0e7ff" stroke="#6c63ff" stroke-width="2"/>
  <text x="580" y="145" font-size="13" text-anchor="middle" fill="#333">Classifier API</text>
  <rect x="260" y="220" width="180" height="40" fill="#e0e7ff" stroke="#6c63ff" stroke-width="2"/>
  <text x="350" y="245" font-size="13" text-anchor="middle" fill="#333">MLOps API</text>
  <rect x="300" y="300" width="100" height="30" fill="#fff" stroke="#6c63ff" stroke-width="2"/>
  <text x="350" y="320" font-size="12" text-anchor="middle" fill="#333">User</text>
  <line x1="390" y1="60" x2="120" y2="120" stroke="#6c63ff" stroke-width="2" marker-end="url(#arrow)"/>
  <line x1="390" y1="60" x2="350" y2="120" stroke="#6c63ff" stroke-width="2" marker-end="url(#arrow)"/>
  <line x1="390" y1="60" x2="580" y2="120" stroke="#6c63ff" stroke-width="2" marker-end="url(#arrow)"/>
  <line x1="390" y1="60" x2="350" y2="220" stroke="#6c63ff" stroke-width="2" marker-end="url(#arrow)"/>
  <line x1="350" y1="260" x2="350" y2="300" stroke="#6c63ff" stroke-width="2" marker-end="url(#arrow)"/>
  <defs>
    <marker id="arrow" markerWidth="10" markerHeight="10" refX="5" refY="5" orient="auto" markerUnits="strokeWidth">
      <path d="M0,0 L10,5 L0,10 L2,5 z" fill="#6c63ff" />
    </marker>
  </defs>
</svg> 